<?xml version="1.0" encoding="iso-8859-1"?>
<!-- Generator: Adobe Illustrator 19.0.0, SVG Export Plug-In . SVG Version: 6.00 Build 0)  -->
<svg version="1.1" id="Capa_1" xmlns="http://www.w3.org/2000/svg" xmlns:xlink="http://www.w3.org/1999/xlink" x="0px" y="0px"
	 viewBox="0 0 512 512" style="enable-background:new 0 0 512 512;" xml:space="preserve">
<g>
	<g>
		<path d="M256,22.179l-40.943,133.788c12.708,27.487,26.168,56.465,40.962,83.998c14.602-27.205,27.945-55.928,40.923-83.998
			L256,22.179z"/>
	</g>
</g>
<g>
	<g>
		<path d="M325.392,166.219c-16.118,34.867-32.75,70.831-51.877,104.366c11.14,18.222,23.046,35.171,35.919,49.841
			c17.573-20.15,34.64-41.423,51.422-62.618l39.175-221.797C374.114,60.821,350.284,112.371,325.392,166.219z"/>
	</g>
</g>
<g>
	<g>
		<path d="M118.137,264.634C75.884,211.14,35.506,160.019,0,141.704l104.115,247.269C129.91,450.236,189.529,489.821,256,489.821
			c33.641,0,65.53-10.141,92.165-28.098C257.64,441.261,184.006,348.029,118.137,264.634z"/>
	</g>
</g>
<g>
	<g>
		<path d="M186.608,166.221c-24.893-53.849-48.723-105.399-74.64-130.209l39.175,221.796
			c32.793,41.412,67.614,84.287,104.859,117.569c11.281-10.074,22.301-20.986,33.108-32.469
			C246.301,295.321,214.709,227.01,186.608,166.221z"/>
	</g>
</g>
<g>
	<g>
		<path d="M393.862,264.635c-35.993,45.569-73.091,92.537-114.363,130.12c31.201,23.504,64.068,39.102,98.806,40.798
			c12.181-13.501,22.246-29.162,29.579-46.58L512,141.704C476.494,160.019,436.115,211.14,393.862,264.635z"/>
	</g>
</g>
<g>
</g>
<g>
</g>
<g>
</g>
<g>
</g>
<g>
</g>
<g>
</g>
<g>
</g>
<g>
</g>
<g>
</g>
<g>
</g>
<g>
</g>
<g>
</g>
<g>
</g>
<g>
</g>
<g>
</g>
</svg>
