<?xml version="1.0" encoding="iso-8859-1"?>
<!-- Generator: Adobe Illustrator 19.0.0, SVG Export Plug-In . SVG Version: 6.00 Build 0)  -->
<svg version="1.1" id="Capa_1" xmlns="http://www.w3.org/2000/svg" xmlns:xlink="http://www.w3.org/1999/xlink" x="0px" y="0px"
	 viewBox="0 0 512.007 512.007" style="enable-background:new 0 0 512.007 512.007;" xml:space="preserve">
<g>
	<g>
		<path d="M64.004,192.007c-17.664,0-32,14.336-32,32v128c0,17.664,14.336,32,32,32s32-14.336,32-32v-128
			C96.004,206.343,81.668,192.007,64.004,192.007z"/>
	</g>
</g>
<g>
	<g>
		<path d="M448.004,192.007c-17.664,0-32,14.336-32,32v128c0,17.664,14.336,32,32,32s32-14.336,32-32v-128
			C480.004,206.343,465.668,192.007,448.004,192.007z"/>
	</g>
</g>
<g>
	<g>
		<path d="M128.004,193.863v192c0,17.664,14.336,32,32,32v62.144c0,17.664,14.336,32,32,32s32-14.336,32-32v-62.144h64v62.144
			c0,17.664,14.336,32,32,32s32-14.336,32-32v-62.144c17.664,0,32-14.336,32-32v-192H128.004z"/>
	</g>
</g>
<g>
	<g>
		<path d="M128.004,160.007h256c0-40.32-19.008-75.84-48.128-99.296l28.48-34.528c5.632-6.816,4.672-16.896-2.144-22.528
			c-6.848-5.6-16.896-4.672-22.528,2.144l-31.136,37.728c-16.064-7.264-33.76-11.52-52.544-11.52
			c-19.04,0-36.96,4.416-53.184,11.904L172.516,6.023c-5.536-6.88-15.584-8.032-22.496-2.496c-6.88,5.536-8,15.584-2.496,22.496
			l28.096,35.136C146.788,84.615,128.004,119.943,128.004,160.007z M288.004,80.007c8.832,0,16,7.168,16,16c0,8.832-7.168,16-16,16
			c-8.832,0-16-7.168-16-16C272.004,87.175,279.172,80.007,288.004,80.007z M224.004,80.007c8.832,0,16,7.168,16,16
			c0,8.832-7.168,16-16,16c-8.832,0-16-7.168-16-16C208.004,87.175,215.172,80.007,224.004,80.007z"/>
	</g>
</g>
<g>
</g>
<g>
</g>
<g>
</g>
<g>
</g>
<g>
</g>
<g>
</g>
<g>
</g>
<g>
</g>
<g>
</g>
<g>
</g>
<g>
</g>
<g>
</g>
<g>
</g>
<g>
</g>
<g>
</g>
</svg>
