<svg id="Capa_1" enable-background="new 0 0 512 512" viewBox="0 0 512 512" xmlns="http://www.w3.org/2000/svg"><g><path d="m453.38 165c0-103.205-70.998-157.495-76.45-165l-43.427 38.666c-29.747-24.605-66.275-38.666-105.123-38.666-3.836 0-7.592.317-11.364.575 8.106 29.568 21.777 37.509 37.042 45.934 16.157 8.906 36.27 19.995 48.413 53.364 11.909 32.695 5.508 55.854-.146 76.274-5.098 18.428-9.492 34.351-.879 58.037 10.124 27.806 24.633 44.745 35.696 54.575 34.391-30.26 56.237-74.458 56.237-123.759 0-38.807-14.039-75.304-38.676-105.114l21.742-21.742c30.368 35.552 46.935 80.054 46.935 126.856 0 107.52-87.48 195-195 195-46.802 0-91.304-16.567-126.855-46.934l21.632-21.632c25.153 20.625 55.206 33.351 87.407 36.826-5.676-8.297-10.897-17.578-14.938-28.685-7.764-42.715-2.607-63.047.806-76.509 2.915-11.514 3.604-14.253-3.706-25.562-5.918-9.155-23.394-12.642-43.638-16.67-24.765-4.929-56.797-11.409-84.774-33.208-.6 5.714-.934 11.504-.934 17.374 0 38.807 14.039 75.304 38.676 105.114l-43.436 43.436c5.644 4.046 56.252 69.198 154.761 75.716v32.734h-54.272l-45 90h228.545l-45-90h-54.274v-32.76c117.073-7.775 210-105.231 210-224.24z"/><path d="m217.921 181.216c14.414 22.28 11.104 35.361 7.588 49.219-3.105 12.275-6.987 27.568-1.025 61.406 6.123 16.522 15.483 28.244 25.362 36.599 22.668-2.966 43.856-10.54 62.679-21.764-13.27-12.973-28.55-32.794-39.261-62.238-11.909-32.695-5.508-55.854.146-76.274 5.098-18.428 9.492-34.351.879-58.037-8.306-22.793-19.951-29.224-34.717-37.354-23.08-12.729-42.257-26.904-52.386-67.357-54.421 14.066-98.019 55.131-115.474 108.117 24.009 25.576 54.807 32.223 83.236 37.888 25.796 5.127 50.156 9.975 62.973 29.795z"/></g></svg>